<?xml version="1.0" encoding="UTF-8"?>
<svg version="1.1" xmlns="http://www.w3.org/2000/svg" width="201" height="201">
<path d="M0 0 C66.33 0 132.66 0 201 0 C201 66.33 201 132.66 201 201 C134.67 201 68.34 201 0 201 C0 134.67 0 68.34 0 0 Z " fill="#FEFDFD" transform="translate(0,0)"/>
<path d="M0 0 C66.33 0 132.66 0 201 0 C201 66.33 201 132.66 201 201 C134.67 201 68.34 201 0 201 C0 134.67 0 68.34 0 0 Z M9.625 11.4375 C9.16351562 11.99308594 8.70203125 12.54867188 8.2265625 13.12109375 C5.33306207 17.55349409 4.74855095 21.37426611 4.73930359 26.62165833 C4.73547804 27.2736543 4.73165249 27.92565028 4.72771102 28.59740371 C4.71742153 30.77440994 4.72136539 32.95115042 4.7253418 35.12817383 C4.720993 36.6922683 4.71580929 38.25636065 4.70985413 39.82044983 C4.69646902 44.06438123 4.69588505 48.30822355 4.69841743 52.55217195 C4.69948775 56.09823945 4.69460206 59.64428897 4.689812 63.19035262 C4.67871791 71.55928849 4.67827847 79.92817948 4.68432617 88.29711914 C4.69036294 96.92163729 4.67806231 105.54599217 4.6567561 114.17048246 C4.63912152 121.58212249 4.63314178 128.99371066 4.63639385 136.40537089 C4.63820433 140.82883847 4.63559429 145.25218966 4.62167931 149.6756382 C4.6090758 153.83796945 4.61106882 158.000047 4.62409019 162.1623745 C4.62645027 163.68611106 4.62374173 165.20986562 4.61546707 166.73358154 C4.41025732 179.69382589 4.41025732 179.69382589 10.4375 190.8125 C15.93462209 195.5051652 19.11088412 197.12059959 26.45707703 197.14717102 C27.44475837 197.15268605 27.44475837 197.15268605 28.45239288 197.1583125 C30.66317539 197.16934297 32.87391089 197.1731921 35.0847168 197.17700195 C36.66821949 197.18326715 38.25172072 197.189914 39.83522034 197.19691467 C45.03987607 197.21795292 50.24453208 197.22831765 55.44921875 197.23828125 C57.24168221 197.24232906 59.03414551 197.24644599 60.82660866 197.25063133 C69.2489181 197.26968342 77.67121877 197.28391375 86.09354562 197.2922433 C95.81095547 197.30201261 105.52813735 197.32832401 115.24546689 197.36874419 C122.75896798 197.39892307 130.27240379 197.41371391 137.78596431 197.41702431 C142.2721177 197.41937302 146.75802754 197.42830986 151.24411583 197.45348549 C155.46719068 197.47680194 159.68986226 197.4809852 163.91298485 197.47072411 C165.4593083 197.47022948 167.00565184 197.47652832 168.55191422 197.49028015 C177.59119551 197.5661455 185.05714481 197.62796287 192.0234375 191.10546875 C192.69246094 190.15607422 192.69246094 190.15607422 193.375 189.1875 C193.83648437 188.56230469 194.29796875 187.93710938 194.7734375 187.29296875 C197.50853857 182.17989764 198.25058698 177.03457194 198.27415466 171.30314636 C198.28911736 169.34147774 198.28911736 169.34147774 198.30438232 167.34017944 C198.30527794 165.90802014 198.3059416 164.47586068 198.30639648 163.04370117 C198.31402549 161.52196347 198.32245425 160.00022959 198.33161926 158.47850037 C198.35349697 154.35853258 198.36235397 150.23863898 198.36744571 146.11861968 C198.37109698 143.54068808 198.377341 140.9627757 198.3844471 138.38485146 C198.40891734 129.38017555 198.42198843 120.37555706 198.42553711 111.37084961 C198.42917143 102.99503399 198.45906548 94.619585 198.50094169 86.2438814 C198.53569964 79.03768614 198.55108649 71.83161209 198.55178314 64.62533361 C198.55257402 60.32803796 198.56122544 56.03111625 198.58978081 51.7339077 C198.6160566 47.68960967 198.61811432 43.64599314 198.60212517 39.60164833 C198.60031825 38.12388745 198.60693265 36.6460865 198.62294388 35.16841125 C198.72112616 25.51265735 198.00353656 17.41699175 191.2152319 10.06775188 C185.96029617 5.08301394 180.4766845 3.75338309 173.29605103 3.73257446 C172.64728418 3.72804335 171.99851733 3.72351224 171.33009088 3.71884382 C169.17001941 3.70624804 167.01020164 3.70781701 164.85009766 3.70947266 C163.29570697 3.70348442 161.74131926 3.69667819 160.18693542 3.68911743 C155.97406204 3.67148124 151.76126994 3.66676309 147.54836321 3.66548586 C144.91400213 3.66406247 142.2796616 3.65978933 139.64530563 3.65449142 C130.44841961 3.63599974 121.2515915 3.62781982 112.0546875 3.62939453 C103.49202299 3.63059602 94.9296105 3.60949001 86.36700976 3.5779072 C79.00630309 3.55172838 71.64567867 3.54102789 64.28492582 3.54230535 C59.89272721 3.54281447 55.50075271 3.537159 51.10860062 3.51594925 C46.97657011 3.49653942 42.8449769 3.49646092 38.71293068 3.51098251 C37.20047553 3.51306825 35.6879928 3.50838369 34.17558479 3.4962616 C24.76640672 3.42575774 16.02230754 3.43162091 9.625 11.4375 Z " fill="#0F0F0F" transform="translate(0,0)"/>
<path d="M0 0 C5.57932944 3.34013368 9.19302548 7.79933444 11.2734375 13.9609375 C12.55591925 20.60652477 11.0755811 25.90436554 7.8359375 31.7578125 C4.68702248 36.19778268 0.6629481 38.93811067 -4.7265625 39.9609375 C-12.08387681 40.80207763 -17.82365491 40.56050774 -23.8125 35.921875 C-28.46136377 31.1591615 -30.93417888 25.59585017 -31.4140625 18.9609375 C-31.02000187 12.19800513 -27.67357552 6.99663379 -23.0390625 2.22265625 C-16.60425512 -2.70052612 -7.38351849 -2.81377639 0 0 Z " fill="#FD6464" transform="translate(111.7265625,84.0390625)"/>
<path d="M0 0 C66.33 0 132.66 0 201 0 C201 6.6 201 13.2 201 20 C199.93518803 18.40278204 198.88175285 16.79520964 197.921875 15.1328125 C194.20385988 8.76261326 190.2301005 4.33738464 183 2 C179.77512207 1.69243328 179.77512207 1.69243328 176.23321533 1.72584534 C175.56559071 1.72060866 174.89796609 1.71537198 174.21011043 1.70997661 C171.98018172 1.6950135 169.75048322 1.69427229 167.52050781 1.69360352 C165.91862604 1.68597946 164.31674793 1.67755153 162.71487427 1.66838074 C158.36759017 1.64645125 154.02037641 1.63763875 149.67304325 1.63255429 C146.9547575 1.62890844 144.23649011 1.62266714 141.51821136 1.6155529 C132.02840874 1.59106236 122.53866073 1.57800767 113.04882812 1.57446289 C104.21406846 1.57082945 95.37965659 1.54094685 86.54500318 1.49905831 C78.95160654 1.464322 71.35832495 1.44891386 63.76484942 1.44821686 C59.23337926 1.44742508 54.70226336 1.43873273 50.17087555 1.41021919 C45.90582922 1.3839816 41.64142939 1.38186475 37.37633896 1.39787483 C35.81592012 1.39968491 34.25546362 1.39303854 32.69512558 1.37705612 C22.67655886 1.28073945 15.12084487 2.01755635 7.6875 9.25 C2.17679183 18.23041332 1.42950792 25.93136568 1.51416016 36.30688477 C1.51201099 37.84201378 1.50812841 39.3771412 1.50265503 40.91226196 C1.49300872 45.05899041 1.50820525 49.20528447 1.52856112 53.35196042 C1.54620679 57.70305415 1.54260559 62.05413596 1.5418396 66.40525818 C1.54370914 73.7092917 1.56102661 81.01315844 1.58837891 88.31713867 C1.61983773 96.74858657 1.63037445 105.17985205 1.6289078 113.61135441 C1.62755443 122.60819157 1.64144881 131.6049589 1.65980101 140.60177493 C1.66405308 143.18568168 1.66548191 145.76957709 1.66627884 148.35348701 C1.66829551 152.42064274 1.68056831 156.48764678 1.70061111 160.55475235 C1.70642665 162.04300571 1.70891887 163.53127652 1.70775604 165.01954079 C1.70268474 175.46600091 1.76828316 183.27559642 8 192 C8 192.66 8 193.32 8 194 C8.556875 194.268125 9.11375 194.53625 9.6875 194.8125 C12 196 12 196 14.21406841 197.54998875 C17.65759327 199.34226168 20.01322902 199.37994169 23.8874054 199.38768005 C24.56798624 199.39306559 25.24856708 199.39845113 25.94977158 199.40399987 C28.22361722 199.41827379 30.49688022 199.41117739 32.77075195 199.40405273 C34.40381335 199.40975673 36.03687075 199.4167211 37.66992188 199.42485046 C42.10189725 199.44279672 46.53367479 199.44161039 50.96567559 199.43590808 C54.66832599 199.43281743 58.37093832 199.43890751 62.0735833 199.44494683 C70.81170167 199.45899612 79.54972229 199.45742824 88.2878418 199.44604492 C97.2941297 199.43457129 106.30011956 199.44862571 115.30636817 199.4754414 C123.04498015 199.49761774 130.78349871 199.50423118 138.5221402 199.49836498 C143.14125495 199.49499786 147.76017879 199.49739383 152.37926674 199.51461601 C156.72551843 199.53011324 161.07132992 199.52609896 165.41756439 199.50731087 C167.00902664 199.50363223 168.60052169 199.50671229 170.19195366 199.51719666 C183.17739861 199.65750143 183.17739861 199.65750143 194.0234375 193.0703125 C196.74253727 189.15669491 198.82583779 185.69664883 200 181 C200.33 181 200.66 181 201 181 C201 187.6 201 194.2 201 201 C134.67 201 68.34 201 0 201 C0 134.67 0 68.34 0 0 Z " fill="#FCFCFC" transform="translate(0,0)"/>
<path d="M0 0 C58.41 0 116.82 0 177 0 C177 6.6 177 13.2 177 20 C175.93518803 18.40278204 174.88175285 16.79520964 173.921875 15.1328125 C170.20173066 8.75896519 166.23050365 4.34515435 159 2 C155.83206424 1.69109405 155.83206424 1.69109405 152.36247253 1.7215271 C151.70891558 1.7157347 151.05535864 1.7099423 150.38199693 1.70397437 C148.20017071 1.68701932 146.01855661 1.68410181 143.83666992 1.68115234 C142.26944462 1.67185105 140.70222427 1.66168207 139.13500977 1.65071106 C134.88545186 1.62341967 130.63592709 1.6082642 126.38630462 1.59528303 C121.94331422 1.57964874 117.50039144 1.55285946 113.05744934 1.5272522 C104.64634906 1.48046971 96.23523605 1.44372302 87.82407218 1.41057932 C78.24731309 1.37235421 68.67062193 1.32294505 59.09392011 1.27259517 C39.3959969 1.16928319 19.69803069 1.08002038 0 1 C0 0.67 0 0.34 0 0 Z " fill="#CFCFCF" transform="translate(24,0)"/>
<path d="M0 0 C0.33 0 0.66 0 1 0 C1 6.6 1 13.2 1 20 C-58.73 20 -118.46 20 -180 20 C-180 19.67 -180 19.34 -180 19 C-179.16216225 18.99853344 -178.32432449 18.99706688 -177.46109772 18.99555588 C-157.06251927 18.95848344 -136.66410692 18.89946285 -116.26566315 18.81609726 C-106.40106437 18.77630976 -96.53654533 18.74391578 -86.671875 18.72900391 C-78.07252943 18.71598591 -69.47335934 18.68901743 -60.87411261 18.64538693 C-56.32201391 18.62277548 -51.77013163 18.60708913 -47.2179718 18.60811615 C-42.93001322 18.60886295 -38.64253297 18.59090435 -34.35469818 18.55883217 C-32.78422478 18.55033981 -31.21369768 18.54857875 -29.64321136 18.55419731 C-16.74585175 18.63845105 -16.74585175 18.63845105 -5.9765625 12.0703125 C-3.25746273 8.15669491 -1.17416221 4.69664883 0 0 Z " fill="#333333" transform="translate(200,181)"/>
<path d="M0 0 C5.57932944 3.34013368 9.19302548 7.79933444 11.2734375 13.9609375 C12.55561229 20.60493415 11.07543541 25.90034299 7.83984375 31.75390625 C5.40001716 35.19156716 2.9566884 36.914687 -0.7265625 38.9609375 C-1.7165625 38.9609375 -2.7065625 38.9609375 -3.7265625 38.9609375 C-3.7265625 38.3009375 -3.7265625 37.6409375 -3.7265625 36.9609375 C-2.08203125 35.84765625 -2.08203125 35.84765625 0.0859375 34.6484375 C3.65536887 32.46641762 5.74948439 30.99493103 7.2734375 26.9609375 C8.48376697 20.94006125 8.75373147 15.7107099 6.2734375 9.9609375 C2.53459051 5.39123562 -1.32968925 2.43504098 -7.2734375 1.60546875 C-13.0472711 1.31039714 -17.34291653 1.89866242 -22.06640625 5.3515625 C-26.16510064 9.32488507 -27.91428686 13.80094159 -28.2265625 19.4609375 C-27.90801688 25.60886791 -25.66113609 30.12309259 -21.2265625 34.3359375 C-16.23050054 36.6555377 -11.16280105 37.29240331 -5.7265625 37.9609375 C-5.7265625 38.6209375 -5.7265625 39.2809375 -5.7265625 39.9609375 C-12.83332874 40.67825596 -17.98763308 40.34991224 -23.77734375 35.921875 C-28.47375742 31.19722637 -30.93423914 25.59501702 -31.4140625 18.9609375 C-31.02000187 12.19800513 -27.67357552 6.99663379 -23.0390625 2.22265625 C-16.60425512 -2.70052612 -7.38351849 -2.81377639 0 0 Z " fill="#9B1818" transform="translate(111.7265625,84.0390625)"/>
<path d="M0 0 C0.33 0 0.66 0 1 0 C1.2475 1.19625 1.495 2.3925 1.75 3.625 C2.74663747 7.698214 4.5576687 10.58073618 7 14 C7 14.66 7 15.32 7 16 C7.85851562 16.42925781 7.85851562 16.42925781 8.734375 16.8671875 C12.15625 18.578125 15.578125 20.2890625 19 22 C19 22.33 19 22.66 19 23 C12.4 23 5.8 23 -1 23 C-1.020625 19.761875 -1.04125 16.52375 -1.0625 13.1875 C-1.071604 12.17067139 -1.08070801 11.15384277 -1.09008789 10.10620117 C-1.09258545 9.30158447 -1.09508301 8.49696777 -1.09765625 7.66796875 C-1.10289307 6.84578857 -1.10812988 6.0236084 -1.11352539 5.17651367 C-1 3 -1 3 0 0 Z " fill="#F8F8F8" transform="translate(1,178)"/>
<path d="M0 0 C7.59 0 15.18 0 23 0 C23 6.6 23 13.2 23 20 C21.93518803 18.40278204 20.88175285 16.79520964 19.921875 15.1328125 C15.4052926 7.39440132 10.62884852 3.79029732 1.9765625 1.48046875 C0.99816406 1.24263672 0.99816406 1.24263672 0 1 C0 0.67 0 0.34 0 0 Z " fill="#F8F8F8" transform="translate(178,0)"/>
<path d="M0 0 C0.33 0 0.66 0 1 0 C1 6.6 1 13.2 1 20 C-5.93 20 -12.86 20 -20 20 C-16 18 -16 18 -14.0703125 17.2109375 C-8.33563987 14.74664042 -5.12839611 11.37178543 -2 6 C-0.61996115 2.70827239 -0.61996115 2.70827239 0 0 Z " fill="#F6F6F6" transform="translate(200,181)"/>
<path d="M0 0 C2.46649533 3.69974299 2.25573392 5.26179573 1.671875 9.515625 C0.16658186 15.08170893 -3.15227752 19.58198042 -7.6875 23.0625 C-10 24 -10 24 -13 24 C-13 23.34 -13 22.68 -13 22 C-11.08073296 20.70073371 -9.0746115 19.62560667 -7.04296875 18.51171875 C-3.54798935 15.92556765 -2.25063418 13.06821093 -1.26953125 8.88671875 C-1.04330078 7.30310547 -1.04330078 7.30310547 -0.8125 5.6875 C-0.65394531 4.61886719 -0.49539062 3.55023438 -0.33203125 2.44921875 C-0.22246094 1.64097656 -0.11289063 0.83273438 0 0 Z " fill="#9B1919" transform="translate(121,99)"/>
<path d="M0 0 C5.82288742 1.83005033 9.20387478 5.48434071 12.375 10.5625 C14 14 14 14 13.75 16.4375 C13.5025 16.953125 13.255 17.46875 13 18 C12.34 17.67 11.68 17.34 11 17 C10.731875 15.9275 10.46375 14.855 10.1875 13.75 C8.44459034 8.24607475 5.68077597 5.91966987 0.6875 3.1875 C-0.199375 2.795625 -1.08625 2.40375 -2 2 C-1.34 1.34 -0.68 0.68 0 0 Z " fill="#A22222" transform="translate(109,84)"/>
<path d="M0 0 C2.17240606 3.25860909 2.23564158 3.82050803 1.8125 7.5 C1.73644531 8.2734375 1.66039063 9.046875 1.58203125 9.84375 C1 12 1 12 -2 15 C-1.34 10.05 -0.68 5.1 0 0 Z " fill="#950F0F" transform="translate(121,99)"/>
</svg>
