<?xml version="1.0" encoding="UTF-8"?>
<svg version="1.1" xmlns="http://www.w3.org/2000/svg" width="600" height="600">
<path d="M0 0 C1.89156923 -0.00461883 3.78313486 -0.01097829 5.67469311 -0.01890898 C10.82967393 -0.03549052 15.98435566 -0.02740715 21.13933706 -0.0149641 C26.71543928 -0.00586986 32.29149202 -0.01990494 37.86758423 -0.03088379 C48.77422033 -0.04862707 59.68074603 -0.04484772 70.58738637 -0.03323323 C79.45510717 -0.02418266 88.32279714 -0.02298192 97.19052124 -0.02732849 C98.45484928 -0.02794142 99.71917733 -0.02855436 101.02181834 -0.02918586 C103.5906481 -0.03046482 106.15947786 -0.03176168 108.7283076 -0.03307623 C132.10476099 -0.04414526 155.48114375 -0.03268572 178.85758345 -0.01170584 C200.16819 0.00727463 221.47870092 0.00557603 242.78930664 -0.0135498 C266.76767279 -0.03499831 290.74597925 -0.04337123 314.72435856 -0.03110075 C317.28349367 -0.02982662 319.84262879 -0.02856913 322.40176392 -0.02732849 C323.66075522 -0.02671139 324.91974653 -0.02609429 326.21688908 -0.02545848 C335.06919689 -0.0220115 343.92147066 -0.02781988 352.77377319 -0.0372467 C363.56859066 -0.04848994 374.36329185 -0.04537777 385.15809608 -0.02412373 C390.66087855 -0.01364465 396.16346748 -0.00943778 401.66624832 -0.02272034 C406.71206854 -0.03471527 411.75751737 -0.02796546 416.80330431 -0.00681013 C418.62005329 -0.00237399 420.43683421 -0.00454228 422.25356233 -0.01431328 C436.51977624 -0.08510387 450.30949165 1.32872693 463.10864258 8.25793457 C463.76687012 8.60227539 464.42509766 8.94661621 465.10327148 9.3013916 C485.16811258 20.06562326 499.95564065 37.10343727 506.86690855 58.88211536 C509.80813817 69.62410347 510.3637531 79.61620593 510.30407715 90.71179199 C510.30869598 92.60336122 510.31505544 94.49492685 510.32298613 96.3864851 C510.33956767 101.54146592 510.3314843 106.69614766 510.31904125 111.85112906 C510.30994701 117.42723127 510.32398209 123.00328401 510.33496094 128.57937622 C510.35270421 139.48601232 510.34892487 150.39253802 510.33731037 161.29917836 C510.32825981 170.16689917 510.32705907 179.03458913 510.33140564 187.90231323 C510.33201857 189.16664128 510.3326315 190.43096932 510.33326301 191.73361033 C510.33454197 194.3024401 510.33583883 196.87126985 510.33715338 199.4400996 C510.34822241 222.81655298 510.33676287 246.19293575 510.31578299 269.56937544 C510.29680252 290.87998199 510.29850111 312.19049291 510.31762695 333.50109863 C510.33907546 357.47946478 510.34744838 381.45777124 510.3351779 405.43615055 C510.33390376 407.99528566 510.33264628 410.55442078 510.33140564 413.11355591 C510.33078854 414.37254721 510.33017144 415.63153852 510.32953563 416.92868108 C510.32608865 425.78098888 510.33189703 434.63326265 510.34132385 443.48556519 C510.35256709 454.28038265 510.34945492 465.07508384 510.32820088 475.86988807 C510.3177218 481.37267054 510.31351493 486.87525947 510.32679749 492.37804031 C510.33879242 497.42386053 510.33204261 502.46930937 510.31088728 507.51509631 C510.30645114 509.33184528 510.30861943 511.14862621 510.31839043 512.96535432 C510.38918101 527.23156823 508.97535022 541.02128364 502.04614258 553.82043457 C501.70180176 554.47866211 501.35746094 555.13688965 501.00268555 555.81506348 C490.23845389 575.87990457 473.20063988 590.66743264 451.42196178 597.57870054 C440.67997368 600.51993016 430.68787122 601.07554509 419.59228516 601.01586914 C417.70071592 601.02048797 415.80915029 601.02684743 413.91759205 601.03477812 C408.76261123 601.05135966 403.60792949 601.04327629 398.45294809 601.03083324 C392.87684588 601.021739 387.30079314 601.03577408 381.72470093 601.04675293 C370.81806483 601.06449621 359.91153913 601.06071686 349.00489879 601.04910237 C340.13717798 601.0400518 331.26948802 601.03885106 322.40176392 601.04319763 C321.13743587 601.04381056 319.87310783 601.0444235 318.57046682 601.045055 C316.00163705 601.04633396 313.4328073 601.04763082 310.86397755 601.04894537 C287.48752416 601.0600144 264.1111414 601.04855486 240.73470171 601.02757498 C219.42409515 601.00859451 198.11358423 601.01029311 176.80297852 601.02941895 C152.82461236 601.05086745 128.84630591 601.05924037 104.8679266 601.04696989 C102.30879149 601.04569576 99.74965637 601.04443827 97.19052124 601.04319763 C95.93152994 601.04258053 94.67253863 601.04196343 93.37539607 601.04132763 C84.52308827 601.03788064 75.6708145 601.04368902 66.81851196 601.05311584 C56.0236945 601.06435908 45.22899331 601.06124691 34.43418908 601.03999287 C28.9314066 601.02951379 23.42881768 601.02530692 17.92603683 601.03858948 C12.88021661 601.05058441 7.83476778 601.04383461 2.78898084 601.02267927 C0.97223186 601.01824313 -0.84454906 601.02041142 -2.66127717 601.03018242 C-16.92749108 601.10097301 -30.71720649 599.68714221 -43.51635742 592.75793457 C-44.17458496 592.41359375 -44.8328125 592.06925293 -45.51098633 591.71447754 C-65.57582742 580.95024588 -80.36335549 563.91243188 -87.27462339 542.13375378 C-90.21585301 531.39176567 -90.77146794 521.39966321 -90.71179199 510.30407715 C-90.71641082 508.41250792 -90.72277028 506.52094229 -90.73070097 504.62938404 C-90.74728252 499.47440322 -90.73919914 494.31972148 -90.7267561 489.16474009 C-90.71766185 483.58863787 -90.73169693 478.01258513 -90.74267578 472.43649292 C-90.76041906 461.52985682 -90.75663971 450.62333112 -90.74502522 439.71669078 C-90.73597465 430.84896998 -90.73477392 421.98128001 -90.73912048 413.11355591 C-90.73973342 411.84922787 -90.74034635 410.58489982 -90.74097785 409.28225881 C-90.74225681 406.71342904 -90.74355367 404.14459929 -90.74486822 401.57576954 C-90.75593725 378.19931616 -90.74447771 354.82293339 -90.72349783 331.4464937 C-90.70451736 310.13588715 -90.70621596 288.82537623 -90.7253418 267.51477051 C-90.7467903 243.53640436 -90.75516322 219.5580979 -90.74289274 195.57971859 C-90.74161861 193.02058348 -90.74036112 190.46144836 -90.73912048 187.90231323 C-90.73819483 186.01382627 -90.73819483 186.01382627 -90.73725048 184.08718807 C-90.73380349 175.23488026 -90.73961187 166.38260649 -90.7490387 157.53030396 C-90.76028193 146.73548649 -90.75716976 135.9407853 -90.73591572 125.14598107 C-90.72543664 119.6431986 -90.72122977 114.14060967 -90.73451233 108.63782883 C-90.74650726 103.59200861 -90.73975746 98.54655977 -90.71860212 93.50077283 C-90.71416599 91.68402386 -90.71633427 89.86724294 -90.72610527 88.05051482 C-90.79689586 73.78430091 -89.38306506 59.9945855 -82.45385742 47.19543457 C-82.1095166 46.53720703 -81.76517578 45.87897949 -81.41040039 45.20080566 C-70.64616873 25.13596457 -53.60835473 10.3484365 -31.82967663 3.4371686 C-21.08768852 0.49593898 -11.09558606 -0.05967595 0 0 Z M-63.51635742 34.94543457 C-80.73782754 54.59208007 -82.36256384 77.2973963 -82.33757019 102.23698425 C-82.33944119 104.01713939 -82.34174304 105.79729411 -82.34443551 107.57744819 C-82.35052415 112.44300016 -82.3504234 117.30853488 -82.34924114 122.17408979 C-82.34903639 127.43192454 -82.35456296 132.68975386 -82.35929871 137.94758606 C-82.36758962 148.23877937 -82.37035284 158.52996695 -82.37091108 168.82116332 C-82.37138697 177.18982089 -82.37344533 185.55847658 -82.37661171 193.92713356 C-82.3854139 217.67593274 -82.39003175 241.4247274 -82.38928124 265.17352822 C-82.38924128 266.45265917 -82.38920132 267.73179012 -82.38916016 269.04968262 C-82.38911928 270.3303829 -82.38907839 271.61108319 -82.38903628 272.93059257 C-82.38862989 293.68236932 -82.39819864 314.43412791 -82.41229852 335.1858994 C-82.42667608 356.51534674 -82.43356795 377.84478524 -82.43270475 399.17423755 C-82.43237326 411.14038886 -82.43509909 423.10652114 -82.4458828 435.07266808 C-82.45500594 445.26109361 -82.45714815 455.44949147 -82.45037337 465.63791933 C-82.44711738 470.83088644 -82.44701813 476.02380053 -82.45572662 481.21676254 C-82.46363332 485.98081102 -82.46211798 490.74476481 -82.45344249 495.50881109 C-82.45191664 497.22206832 -82.45368869 498.93533276 -82.45930257 500.64858147 C-82.54153402 527.5495351 -78.50058975 551.01528456 -58.78979492 570.94934082 C-38.55226951 589.93406704 -16.00686474 592.66801425 10.4875946 592.64164734 C12.27584897 592.64351786 14.06410294 592.64581953 15.85235626 592.64851266 C20.74490131 592.6546072 25.63742922 592.65449984 30.5299772 592.65331829 C35.81507718 592.65311369 41.10017173 592.65863869 46.38526917 592.66337585 C56.73174363 592.67167006 67.0782124 592.67443014 77.42468991 592.67498823 C85.83771638 592.67546397 94.25074098 592.6775216 102.66376686 592.68068886 C126.5342149 592.68949202 150.40465845 592.69410875 174.27510812 592.69335838 C175.56104119 592.69331843 176.84697426 592.69327847 178.171875 592.6932373 C179.45938433 592.69319642 180.74689365 592.69315554 182.07341842 592.69311342 C202.93586521 592.69270703 223.79829394 592.70227566 244.66073551 592.71637567 C266.09975756 592.73075064 287.53877081 592.73764524 308.97779781 592.7367819 C321.00708931 592.73645032 333.03636188 592.73918027 345.06564903 592.74995995 C355.30792612 592.75907969 365.5501757 592.76122808 375.7924551 592.75445052 C381.01364499 592.75119279 386.23478213 592.75110161 391.45596695 592.75980377 C396.24467516 592.76770273 401.03328911 592.76620288 405.82199512 592.75751964 C407.54535858 592.7559921 409.26872921 592.75777234 410.99208423 592.76337972 C437.51998624 592.84391112 460.64808194 588.46393693 480.23754883 569.09387207 C499.50662117 548.55323657 501.95678642 525.65170522 501.92985535 498.77888489 C501.93172635 496.99872975 501.9340282 495.21857503 501.93672067 493.43842095 C501.94280931 488.57286898 501.94270855 483.70733426 501.94152629 478.84177935 C501.94132154 473.5839446 501.94684812 468.32611528 501.95158386 463.06828308 C501.95987477 452.77708977 501.96263799 442.48590219 501.96319624 432.19470582 C501.96367213 423.82604825 501.96573049 415.45739256 501.96889687 407.08873558 C501.97769906 383.33993641 501.9823169 359.59114174 501.98156639 335.84234092 C501.98152644 334.56320997 501.98148648 333.28407902 501.98144531 331.96618652 C501.98140443 330.68548624 501.98136355 329.40478595 501.98132143 328.08527657 C501.98091505 307.33349982 501.9904838 286.58174123 502.00458368 265.82996974 C502.01896123 244.5005224 502.02585311 223.1710839 502.0249899 201.84163159 C502.02465842 189.87548028 502.02738424 177.909348 502.03816795 165.94320107 C502.04729109 155.75477553 502.04943331 145.56637767 502.04265853 135.37794981 C502.03940253 130.1849827 502.03930329 124.99206861 502.04801178 119.7991066 C502.05591847 115.03505812 502.05440314 110.27110433 502.04572765 105.50705805 C502.04420179 103.79380082 502.04597384 102.08053638 502.05158772 100.36728767 C502.13443471 73.26496924 497.97349816 49.86108181 478.12426758 29.80871582 C458.15314718 10.93769951 435.35384439 8.34809902 409.10469055 8.3742218 C407.31643618 8.37235128 405.52818222 8.37004961 403.7399289 8.36735648 C398.84738384 8.36126194 393.95485594 8.3613693 389.06230795 8.36255085 C383.77720798 8.36275546 378.49211342 8.35723045 373.20701599 8.35249329 C362.86054153 8.34419908 352.51407276 8.341439 342.16759524 8.34088091 C333.75456877 8.34040517 325.34154417 8.33834754 316.9285183 8.33518028 C293.05807026 8.32637712 269.18762671 8.32176039 245.31717703 8.32251076 C243.38827743 8.32257069 243.38827743 8.32257069 241.42041016 8.32263184 C240.13290083 8.32267272 238.8453915 8.3227136 237.51886674 8.32275572 C216.65641995 8.32316211 195.79399121 8.31359348 174.93154965 8.29949347 C153.49252759 8.2851185 132.05351434 8.2782239 110.61448735 8.27908725 C98.58519585 8.27941882 86.55592328 8.27668887 74.52663612 8.26590919 C64.28435903 8.25678945 54.04210946 8.25464106 43.79983006 8.26141862 C38.57864017 8.26467635 33.35750303 8.26476753 28.13631821 8.25606537 C23.34760999 8.24816641 18.55899605 8.24966626 13.77029004 8.2583495 C12.04692657 8.25987704 10.32355595 8.2580968 8.60020093 8.25248943 C-19.75837955 8.16640059 -43.33168306 13.58407515 -63.51635742 34.94543457 Z " fill="#000000" transform="translate(90.203857421875,-0.5079345703125)"/>
<path d="M0 0 C1.56548584 0.00749268 1.56548584 0.00749268 3.16259766 0.01513672 C21.50829628 0.42495436 35.31268913 7.74173967 48.3125 20.5 C48.951875 21.11488281 49.59125 21.72976563 50.25 22.36328125 C61.23055304 33.80952738 65.91118185 49.64890422 65.8125 65.1875 C65.80750488 66.23115723 65.80250977 67.27481445 65.79736328 68.35009766 C65.38754564 86.69579628 58.07076033 100.50018913 45.3125 113.5 C44.69761719 114.139375 44.08273437 114.77875 43.44921875 115.4375 C32.00297262 126.41805304 16.16359578 131.09868185 0.625 131 C-0.41865723 130.99500488 -1.46231445 130.99000977 -2.53759766 130.98486328 C-20.88329628 130.57504564 -34.68768913 123.25826033 -47.6875 110.5 C-48.326875 109.88511719 -48.96625 109.27023437 -49.625 108.63671875 C-60.60555304 97.19047262 -65.28618185 81.35109578 -65.1875 65.8125 C-65.18250488 64.76884277 -65.17750977 63.72518555 -65.17236328 62.64990234 C-64.76254564 44.30420372 -57.44576033 30.49981087 -44.6875 17.5 C-44.07261719 16.860625 -43.45773437 16.22125 -42.82421875 15.5625 C-31.37797262 4.58194696 -15.53859578 -0.09868185 0 0 Z " fill="#000000" transform="translate(449.6875,384.5)"/>
<path d="M0 0 C1.56548584 0.00749268 1.56548584 0.00749268 3.16259766 0.01513672 C21.50829628 0.42495436 35.31268913 7.74173967 48.3125 20.5 C48.951875 21.11488281 49.59125 21.72976562 50.25 22.36328125 C61.23055304 33.80952738 65.91118185 49.64890422 65.8125 65.1875 C65.80750488 66.23115723 65.80250977 67.27481445 65.79736328 68.35009766 C65.38754564 86.69579628 58.07076033 100.50018913 45.3125 113.5 C44.69761719 114.139375 44.08273438 114.77875 43.44921875 115.4375 C32.00297262 126.41805304 16.16359578 131.09868185 0.625 131 C-0.41865723 130.99500488 -1.46231445 130.99000977 -2.53759766 130.98486328 C-20.88329628 130.57504564 -34.68768913 123.25826033 -47.6875 110.5 C-48.326875 109.88511719 -48.96625 109.27023438 -49.625 108.63671875 C-60.60555304 97.19047262 -65.28618185 81.35109578 -65.1875 65.8125 C-65.18250488 64.76884277 -65.17750977 63.72518555 -65.17236328 62.64990234 C-64.76254564 44.30420372 -57.44576033 30.49981087 -44.6875 17.5 C-44.07261719 16.860625 -43.45773438 16.22125 -42.82421875 15.5625 C-31.37797262 4.58194696 -15.53859578 -0.09868185 0 0 Z " fill="#000000" transform="translate(149.6875,84.5)"/>
</svg>
