<?xml version="1.0" encoding="UTF-8"?>
<svg version="1.1" xmlns="http://www.w3.org/2000/svg" width="200" height="200">
<path d="M0 0 C66 0 132 0 200 0 C200 66 200 132 200 200 C134 200 68 200 0 200 C0 134 0 68 0 0 Z " fill="#FEFEFE" transform="translate(0,0)"/>
<path d="M0 0 C66 0 132 0 200 0 C200 66 200 132 200 200 C134 200 68 200 0 200 C0 134 0 68 0 0 Z M9.0390625 10.03515625 C8.57242187 10.70417969 8.10578125 11.37320312 7.625 12.0625 C7.14289062 12.73410156 6.66078125 13.40570313 6.1640625 14.09765625 C3.84976349 17.87974892 3.87052681 21.09165201 3.85955811 25.42584229 C3.85658698 26.08091853 3.85361586 26.73599477 3.8505547 27.41092181 C3.84186981 29.61022378 3.84035963 31.8094713 3.83886719 34.00878906 C3.83423882 35.58406185 3.82921413 37.15933352 3.82382202 38.73460388 C3.81069672 43.01781707 3.80425266 47.30101457 3.79981136 51.58424473 C3.79688048 54.26062036 3.79277561 56.9369917 3.78830719 59.61336517 C3.7746311 67.98815493 3.76496534 76.36293489 3.7611053 84.73773503 C3.75662596 94.40304319 3.73908429 104.06820984 3.7101047 113.73347497 C3.68847995 121.20534818 3.67840057 128.6771816 3.67706418 136.14908576 C3.6760166 140.61112644 3.67011896 145.0730341 3.65224457 149.53504181 C3.63575044 153.73426317 3.63361485 157.93325174 3.64238358 162.13249397 C3.64315327 163.67116736 3.63882014 165.20985334 3.62892532 166.7484951 C3.61617842 168.85467977 3.62209662 170.96004333 3.63250732 173.06622314 C3.63104076 174.2431435 3.6295742 175.42006386 3.6280632 176.63264847 C4.36605508 183.31410108 7.35829145 188.25034474 12 193 C16.4350447 195.667432 19.70856761 196.37713517 24.85580444 196.38768005 C25.85345603 196.39575836 25.85345603 196.39575836 26.87126219 196.40399987 C29.08672956 196.41823967 31.30159606 196.41118594 33.51708984 196.40405273 C35.11089048 196.40975846 36.70468704 196.41672351 38.29847717 196.42485046 C42.61882823 196.44277609 46.9389761 196.44161446 51.25935316 196.43590808 C54.87009693 196.43281491 58.48080175 196.43891021 62.09153998 196.44494683 C70.61249198 196.45898891 79.13334372 196.45743381 87.65429688 196.44604492 C96.4350977 196.43456781 105.21559295 196.44863319 113.99635351 196.4754414 C121.54390496 196.49761895 129.09136064 196.50423103 136.63894236 196.49836498 C141.1429079 196.49499865 145.64667765 196.49738872 150.15061569 196.51461601 C154.38772135 196.53011556 158.62437553 196.52609648 162.86146355 196.50731087 C164.41261269 196.50363308 165.9637955 196.5067098 167.51491356 196.51719666 C180.37323627 196.62804571 180.37323627 196.62804571 191.05859375 190 C191.51363281 189.34 191.96867188 188.68 192.4375 188 C193.14712891 187.01 193.14712891 187.01 193.87109375 186 C196.16667247 181.93309238 196.13037318 178.07211481 196.14717102 173.46063232 C196.15084771 172.80540722 196.1545244 172.15018212 196.1583125 171.47510171 C196.16931868 169.28124471 196.17318794 167.08743513 196.17700195 164.89355469 C196.18326889 163.31975658 196.1899159 161.74595994 196.19691467 160.17216492 C196.21792903 155.00541204 196.2283142 149.83865896 196.23828125 144.671875 C196.2423297 142.89148188 196.24644665 141.11108891 196.25063133 139.33069611 C196.26967677 130.9660552 196.28390949 122.60142308 196.2922433 114.23676467 C196.30201544 104.5884148 196.32833702 94.94029436 196.36874419 85.29202533 C196.39892283 77.82945906 196.41371381 70.3669585 196.41702431 62.9043324 C196.41937268 58.4494923 196.4283054 53.9948975 196.45348549 49.54012299 C196.4768021 45.34740273 196.48098515 41.15508867 196.47072411 36.96232033 C196.47022951 35.42728383 196.47652733 33.89222709 196.49028015 32.35725212 C196.69302129 19.96170877 196.69302129 19.96170877 190.58801746 9.49511337 C185.48783786 4.91448782 180.97785898 3.75152883 174.25772095 3.73257446 C173.59276875 3.72804335 172.92781655 3.72351224 172.24271429 3.71884382 C170.02192702 3.70621698 167.80138553 3.70781904 165.58056641 3.70947266 C163.98529242 3.70348635 162.39002132 3.69668056 160.79475403 3.68911743 C156.46619024 3.67146121 152.13770553 3.66676223 147.80910921 3.66548586 C145.1035699 3.66406356 142.39805065 3.65979247 139.69251633 3.65449142 C130.25040156 3.63599282 120.80834323 3.62782065 111.36621094 3.62939453 C102.57008689 3.63059608 93.77420816 3.60949074 84.9781462 3.5779072 C77.4212989 3.55174189 69.86453172 3.54102733 62.30763948 3.54230535 C57.79641174 3.54281488 53.28540206 3.53713644 48.77421951 3.51594925 C44.53058344 3.49656235 40.28737339 3.49644532 36.04372215 3.51098251 C34.4889215 3.51307112 32.93409415 3.50836655 31.37933922 3.4962616 C19.01469568 3.33056248 19.01469568 3.33056248 9.0390625 10.03515625 Z " fill="#1D1D1D" transform="translate(0,0)"/>
<path d="M0 0 C6.60647898 3.61486585 11.01275804 7.58845181 13.3125 14.8125 C14.23539738 20.74393038 13.47831108 26.65495348 10.3125 31.8125 C5.8852739 36.68053216 1.34884293 40.23932724 -5.30078125 41.18359375 C-12.13169237 41.351648 -16.4834263 40.33058217 -21.6875 35.8125 C-26.52450578 31.09888722 -28.74463494 26.71618112 -29.0625 20 C-28.92307745 14.14425298 -27.3041432 9.6349466 -23.296875 5.3125 C-16.05346279 -1.09220132 -9.14073058 -2.9436251 0 0 Z " fill="#FD6464" transform="translate(163.6875,27.1875)"/>
<path d="M0 0 C6.60647898 3.61486585 11.01275804 7.58845181 13.3125 14.8125 C14.23539738 20.74393038 13.47831108 26.65495348 10.3125 31.8125 C5.8852739 36.68053216 1.34884293 40.23932724 -5.30078125 41.18359375 C-12.13169237 41.351648 -16.4834263 40.33058217 -21.6875 35.8125 C-26.52450578 31.09888722 -28.74463494 26.71618112 -29.0625 20 C-28.92307745 14.14425298 -27.3041432 9.6349466 -23.296875 5.3125 C-16.05346279 -1.09220132 -9.14073058 -2.9436251 0 0 Z " fill="#FD6464" transform="translate(107.6875,27.1875)"/>
<path d="M0 0 C6.60647898 3.61486585 11.01275804 7.58845181 13.3125 14.8125 C14.23539738 20.74393038 13.47831108 26.65495348 10.3125 31.8125 C5.8852739 36.68053216 1.34884293 40.23932724 -5.30078125 41.18359375 C-12.13169237 41.351648 -16.4834263 40.33058217 -21.6875 35.8125 C-26.52450578 31.09888722 -28.74463494 26.71618112 -29.0625 20 C-28.92307745 14.14425298 -27.3041432 9.6349466 -23.296875 5.3125 C-16.05346279 -1.09220132 -9.14073058 -2.9436251 0 0 Z " fill="#FD6464" transform="translate(47.6875,27.1875)"/>
<path d="M0 0 C5.57932944 3.34013368 9.19302548 7.79933444 11.2734375 13.9609375 C12.55591925 20.60652477 11.0755811 25.90436554 7.8359375 31.7578125 C4.68702248 36.19778268 0.6629481 38.93811067 -4.7265625 39.9609375 C-12.08387681 40.80207763 -17.82365491 40.56050774 -23.8125 35.921875 C-28.46136377 31.1591615 -30.93417888 25.59585017 -31.4140625 18.9609375 C-31.02000187 12.19800513 -27.67357552 6.99663379 -23.0390625 2.22265625 C-16.60425512 -2.70052612 -7.38351849 -2.81377639 0 0 Z " fill="#FD6464" transform="translate(167.7265625,133.0390625)"/>
<path d="M0 0 C5.57932944 3.34013368 9.19302548 7.79933444 11.2734375 13.9609375 C12.55591925 20.60652477 11.0755811 25.90436554 7.8359375 31.7578125 C4.68702248 36.19778268 0.6629481 38.93811067 -4.7265625 39.9609375 C-12.08387681 40.80207763 -17.82365491 40.56050774 -23.8125 35.921875 C-28.46136377 31.1591615 -30.93417888 25.59585017 -31.4140625 18.9609375 C-31.02000187 12.19800513 -27.67357552 6.99663379 -23.0390625 2.22265625 C-16.60425512 -2.70052612 -7.38351849 -2.81377639 0 0 Z " fill="#FD6464" transform="translate(112.7265625,133.0390625)"/>
<path d="M0 0 C5.57932944 3.34013368 9.19302548 7.79933444 11.2734375 13.9609375 C12.55591925 20.60652477 11.0755811 25.90436554 7.8359375 31.7578125 C4.68702248 36.19778268 0.6629481 38.93811067 -4.7265625 39.9609375 C-12.08387681 40.80207763 -17.82365491 40.56050774 -23.8125 35.921875 C-28.46136377 31.1591615 -30.93417888 25.59585017 -31.4140625 18.9609375 C-31.02000187 12.19800513 -27.67357552 6.99663379 -23.0390625 2.22265625 C-16.60425512 -2.70052612 -7.38351849 -2.81377639 0 0 Z " fill="#FD6464" transform="translate(53.7265625,133.0390625)"/>
<path d="M0 0 C6.60647898 3.61486585 11.01275804 7.58845181 13.3125 14.8125 C14.23506242 20.74177757 13.48048003 26.65799783 10.3125 31.8125 C6.82996764 35.63515229 3.52704133 38.8909144 -1.6875 39.8125 C-1.6875 39.1525 -1.6875 38.4925 -1.6875 37.8125 C-0.4665696 37.0746076 0.79119353 36.39725275 2.0625 35.75 C7.00480914 32.76183082 8.86387548 29.32807038 10.3125 23.8125 C11.2092279 18.78228348 10.75668446 14.98215101 8.25 10.5 C5.56882351 6.77903207 2.79010025 4.08167894 -1.6875 2.8125 C-7.54398416 2.03607218 -13.58755253 1.52325161 -18.75 4.8125 C-23.43688959 8.96307884 -25.84226052 14.08910793 -26.25 20.3125 C-25.94798692 26.55769904 -22.58505209 30.62744001 -18.625 35.1875 C-13.96638379 37.76460684 -8.92372737 38.17780577 -3.6875 38.8125 C-3.6875 39.4725 -3.6875 40.1325 -3.6875 40.8125 C-10.10661306 41.40442641 -14.60749967 41.11365175 -19.93359375 37.3046875 C-24.68508403 33.26221693 -28.22541281 28.91441246 -28.94140625 22.55859375 C-29.23114752 16.43664102 -28.30880123 11.81973132 -24.6875 6.8125 C-17.69313387 -0.73198482 -9.68092231 -3.11758515 0 0 Z " fill="#9E2222" transform="translate(163.6875,27.1875)"/>
<path d="M0 0 C6.60647898 3.61486585 11.01275804 7.58845181 13.3125 14.8125 C14.23506242 20.74177757 13.48048003 26.65799783 10.3125 31.8125 C6.82996764 35.63515229 3.52704133 38.8909144 -1.6875 39.8125 C-1.6875 39.1525 -1.6875 38.4925 -1.6875 37.8125 C-0.4665696 37.0746076 0.79119353 36.39725275 2.0625 35.75 C7.00480914 32.76183082 8.86387548 29.32807038 10.3125 23.8125 C11.2092279 18.78228348 10.75668446 14.98215101 8.25 10.5 C5.56882351 6.77903207 2.79010025 4.08167894 -1.6875 2.8125 C-7.54398416 2.03607218 -13.58755253 1.52325161 -18.75 4.8125 C-23.43688959 8.96307884 -25.84226052 14.08910793 -26.25 20.3125 C-25.94798692 26.55769904 -22.58505209 30.62744001 -18.625 35.1875 C-13.96638379 37.76460684 -8.92372737 38.17780577 -3.6875 38.8125 C-3.6875 39.4725 -3.6875 40.1325 -3.6875 40.8125 C-10.10661306 41.40442641 -14.60749967 41.11365175 -19.93359375 37.3046875 C-24.68508403 33.26221693 -28.22541281 28.91441246 -28.94140625 22.55859375 C-29.23114752 16.43664102 -28.30880123 11.81973132 -24.6875 6.8125 C-17.69313387 -0.73198482 -9.68092231 -3.11758515 0 0 Z " fill="#9E2222" transform="translate(107.6875,27.1875)"/>
<path d="M0 0 C6.60647898 3.61486585 11.01275804 7.58845181 13.3125 14.8125 C14.23506242 20.74177757 13.48048003 26.65799783 10.3125 31.8125 C6.82996764 35.63515229 3.52704133 38.8909144 -1.6875 39.8125 C-1.6875 39.1525 -1.6875 38.4925 -1.6875 37.8125 C-0.4665696 37.0746076 0.79119353 36.39725275 2.0625 35.75 C7.00480914 32.76183082 8.86387548 29.32807038 10.3125 23.8125 C11.2092279 18.78228348 10.75668446 14.98215101 8.25 10.5 C5.56882351 6.77903207 2.79010025 4.08167894 -1.6875 2.8125 C-7.54398416 2.03607218 -13.58755253 1.52325161 -18.75 4.8125 C-23.43688959 8.96307884 -25.84226052 14.08910793 -26.25 20.3125 C-25.94798692 26.55769904 -22.58505209 30.62744001 -18.625 35.1875 C-13.96638379 37.76460684 -8.92372737 38.17780577 -3.6875 38.8125 C-3.6875 39.4725 -3.6875 40.1325 -3.6875 40.8125 C-10.10661306 41.40442641 -14.60749967 41.11365175 -19.93359375 37.3046875 C-24.68508403 33.26221693 -28.22541281 28.91441246 -28.94140625 22.55859375 C-29.23114752 16.43664102 -28.30880123 11.81973132 -24.6875 6.8125 C-17.69313387 -0.73198482 -9.68092231 -3.11758515 0 0 Z " fill="#9E2222" transform="translate(47.6875,27.1875)"/>
<path d="M0 0 C5.57932944 3.34013368 9.19302548 7.79933444 11.2734375 13.9609375 C12.55561229 20.60493415 11.07543541 25.90034299 7.83984375 31.75390625 C5.40001716 35.19156716 2.9566884 36.914687 -0.7265625 38.9609375 C-1.7165625 38.9609375 -2.7065625 38.9609375 -3.7265625 38.9609375 C-3.7265625 38.3009375 -3.7265625 37.6409375 -3.7265625 36.9609375 C-2.08203125 35.84765625 -2.08203125 35.84765625 0.0859375 34.6484375 C3.65536887 32.46641762 5.74948439 30.99493103 7.2734375 26.9609375 C8.48376697 20.94006125 8.75373147 15.7107099 6.2734375 9.9609375 C2.53459051 5.39123562 -1.32968925 2.43504098 -7.2734375 1.60546875 C-13.0472711 1.31039714 -17.34291653 1.89866242 -22.06640625 5.3515625 C-26.16510064 9.32488507 -27.91428686 13.80094159 -28.2265625 19.4609375 C-27.90801688 25.60886791 -25.66113609 30.12309259 -21.2265625 34.3359375 C-16.23050054 36.6555377 -11.16280105 37.29240331 -5.7265625 37.9609375 C-5.7265625 38.6209375 -5.7265625 39.2809375 -5.7265625 39.9609375 C-12.83332874 40.67825596 -17.98763308 40.34991224 -23.77734375 35.921875 C-28.47375742 31.19722637 -30.93423914 25.59501702 -31.4140625 18.9609375 C-31.02000187 12.19800513 -27.67357552 6.99663379 -23.0390625 2.22265625 C-16.60425512 -2.70052612 -7.38351849 -2.81377639 0 0 Z " fill="#9B1818" transform="translate(167.7265625,133.0390625)"/>
<path d="M0 0 C5.57932944 3.34013368 9.19302548 7.79933444 11.2734375 13.9609375 C12.55561229 20.60493415 11.07543541 25.90034299 7.83984375 31.75390625 C5.40001716 35.19156716 2.9566884 36.914687 -0.7265625 38.9609375 C-1.7165625 38.9609375 -2.7065625 38.9609375 -3.7265625 38.9609375 C-3.7265625 38.3009375 -3.7265625 37.6409375 -3.7265625 36.9609375 C-2.08203125 35.84765625 -2.08203125 35.84765625 0.0859375 34.6484375 C3.65536887 32.46641762 5.74948439 30.99493103 7.2734375 26.9609375 C8.48376697 20.94006125 8.75373147 15.7107099 6.2734375 9.9609375 C2.53459051 5.39123562 -1.32968925 2.43504098 -7.2734375 1.60546875 C-13.0472711 1.31039714 -17.34291653 1.89866242 -22.06640625 5.3515625 C-26.16510064 9.32488507 -27.91428686 13.80094159 -28.2265625 19.4609375 C-27.90801688 25.60886791 -25.66113609 30.12309259 -21.2265625 34.3359375 C-16.23050054 36.6555377 -11.16280105 37.29240331 -5.7265625 37.9609375 C-5.7265625 38.6209375 -5.7265625 39.2809375 -5.7265625 39.9609375 C-12.83332874 40.67825596 -17.98763308 40.34991224 -23.77734375 35.921875 C-28.47375742 31.19722637 -30.93423914 25.59501702 -31.4140625 18.9609375 C-31.02000187 12.19800513 -27.67357552 6.99663379 -23.0390625 2.22265625 C-16.60425512 -2.70052612 -7.38351849 -2.81377639 0 0 Z " fill="#9B1818" transform="translate(112.7265625,133.0390625)"/>
<path d="M0 0 C5.57932944 3.34013368 9.19302548 7.79933444 11.2734375 13.9609375 C12.55561229 20.60493415 11.07543541 25.90034299 7.83984375 31.75390625 C5.40001716 35.19156716 2.9566884 36.914687 -0.7265625 38.9609375 C-1.7165625 38.9609375 -2.7065625 38.9609375 -3.7265625 38.9609375 C-3.7265625 38.3009375 -3.7265625 37.6409375 -3.7265625 36.9609375 C-2.08203125 35.84765625 -2.08203125 35.84765625 0.0859375 34.6484375 C3.65536887 32.46641762 5.74948439 30.99493103 7.2734375 26.9609375 C8.48376697 20.94006125 8.75373147 15.7107099 6.2734375 9.9609375 C2.53459051 5.39123562 -1.32968925 2.43504098 -7.2734375 1.60546875 C-13.0472711 1.31039714 -17.34291653 1.89866242 -22.06640625 5.3515625 C-26.16510064 9.32488507 -27.91428686 13.80094159 -28.2265625 19.4609375 C-27.90801688 25.60886791 -25.66113609 30.12309259 -21.2265625 34.3359375 C-16.23050054 36.6555377 -11.16280105 37.29240331 -5.7265625 37.9609375 C-5.7265625 38.6209375 -5.7265625 39.2809375 -5.7265625 39.9609375 C-12.83332874 40.67825596 -17.98763308 40.34991224 -23.77734375 35.921875 C-28.47375742 31.19722637 -30.93423914 25.59501702 -31.4140625 18.9609375 C-31.02000187 12.19800513 -27.67357552 6.99663379 -23.0390625 2.22265625 C-16.60425512 -2.70052612 -7.38351849 -2.81377639 0 0 Z " fill="#9B1818" transform="translate(53.7265625,133.0390625)"/>
<path d="M0 0 C0.33 0 0.66 0 1 0 C1 6.6 1 13.2 1 20 C-4.94 20 -10.88 20 -17 20 C-13 17 -13 17 -10.0625 15.3125 C-4.93406744 11.44001011 -2.07600607 6.0392904 0 0 Z " fill="#F6F6F6" transform="translate(199,180)"/>
<path d="M0 0 C0.66 1.32 1.32 2.64 2 4 C5.27060315 9.82250688 8.33497951 13.82065753 14.265625 17.02734375 C16 18 16 18 18 20 C12.06 20 6.12 20 0 20 C0 13.4 0 6.8 0 0 Z " fill="#F8F8F8" transform="translate(0,180)"/>
<path d="M0 0 C5.94 0 11.88 0 18 0 C18 6.6 18 13.2 18 20 C16 18 16 18 14.6875 14.75 C11.64121973 7.49623361 7.03968287 3.96959327 0 1 C0 0.67 0 0.34 0 0 Z " fill="#F8F8F8" transform="translate(182,0)"/>
<path d="M0 0 C5.94 0 11.88 0 18 0 C14 3 14 3 11.125 4.625 C5.84205677 8.64003685 2.933879 14.132242 0 20 C0 13.4 0 6.8 0 0 Z " fill="#FAFAFA" transform="translate(0,0)"/>
<path d="M0 0 C5.23809691 0.37414978 8.55803805 2.10362172 12 6 C15.81043838 11.39812104 16.90323607 16.48298029 16 23 C14.8066248 29.23335785 11.81257902 32.61132526 7.03515625 36.65234375 C4.98584179 38.0093754 3.40328408 38.57525852 1 39 C1 38.34 1 37.68 1 37 C2.2209304 36.2621076 3.47869353 35.58475275 4.75 34.9375 C9.69230914 31.94933082 11.55137548 28.51557038 13 23 C14.05851729 17.06222204 13.0762421 12.74768672 9.64453125 7.79296875 C7.2831338 5.21842854 4.62534747 3.57389557 1.57421875 1.91015625 C1.05472656 1.60980469 0.53523437 1.30945313 0 1 C0 0.67 0 0.34 0 0 Z " fill="#991515" transform="translate(161,28)"/>
<path d="M0 0 C5.23809691 0.37414978 8.55803805 2.10362172 12 6 C15.81043838 11.39812104 16.90323607 16.48298029 16 23 C14.8066248 29.23335785 11.81257902 32.61132526 7.03515625 36.65234375 C4.98584179 38.0093754 3.40328408 38.57525852 1 39 C1 38.34 1 37.68 1 37 C2.2209304 36.2621076 3.47869353 35.58475275 4.75 34.9375 C9.69230914 31.94933082 11.55137548 28.51557038 13 23 C14.05851729 17.06222204 13.0762421 12.74768672 9.64453125 7.79296875 C7.2831338 5.21842854 4.62534747 3.57389557 1.57421875 1.91015625 C1.05472656 1.60980469 0.53523438 1.30945313 0 1 C0 0.67 0 0.34 0 0 Z " fill="#991515" transform="translate(105,28)"/>
<path d="M0 0 C5.23809691 0.37414978 8.55803805 2.10362172 12 6 C15.81043838 11.39812104 16.90323607 16.48298029 16 23 C14.8066248 29.23335785 11.81257902 32.61132526 7.03515625 36.65234375 C4.98584179 38.0093754 3.40328408 38.57525852 1 39 C1 38.34 1 37.68 1 37 C2.2209304 36.2621076 3.47869353 35.58475275 4.75 34.9375 C9.69230914 31.94933082 11.55137548 28.51557038 13 23 C14.05851729 17.06222204 13.0762421 12.74768672 9.64453125 7.79296875 C7.2831338 5.21842854 4.62534747 3.57389557 1.57421875 1.91015625 C1.05472656 1.60980469 0.53523438 1.30945313 0 1 C0 0.67 0 0.34 0 0 Z " fill="#991515" transform="translate(45,28)"/>
<path d="M0 0 C0.33 0 0.66 0 1 0 C1.14695313 0.56847656 1.29390625 1.13695312 1.4453125 1.72265625 C3.14237656 7.56484803 5.32899153 11.99138393 10 16 C14.46685826 18.13632352 19.11823534 18.49498986 24 19 C24 19.66 24 20.32 24 21 C17.58252766 21.59177511 13.08751743 21.29768448 7.7578125 17.5 C4.21259132 14.47474459 1.49904749 11.49714248 0 7 C-0.03954234 4.66700175 -0.04401732 2.33291811 0 0 Z " fill="#981010" transform="translate(136,47)"/>
<path d="M0 0 C0.33 0 0.66 0 1 0 C1.14695312 0.56847656 1.29390625 1.13695312 1.4453125 1.72265625 C3.14237656 7.56484803 5.32899153 11.99138393 10 16 C14.46685826 18.13632352 19.11823534 18.49498986 24 19 C24 19.66 24 20.32 24 21 C17.58252766 21.59177511 13.08751743 21.29768448 7.7578125 17.5 C4.21259132 14.47474459 1.49904749 11.49714248 0 7 C-0.03954234 4.66700175 -0.04401732 2.33291811 0 0 Z " fill="#981010" transform="translate(80,47)"/>
<path d="M0 0 C0.33 0 0.66 0 1 0 C1.14695312 0.56847656 1.29390625 1.13695312 1.4453125 1.72265625 C3.14237656 7.56484803 5.32899153 11.99138393 10 16 C14.46685826 18.13632352 19.11823534 18.49498986 24 19 C24 19.66 24 20.32 24 21 C17.58252766 21.59177511 13.08751743 21.29768448 7.7578125 17.5 C4.21259132 14.47474459 1.49904749 11.49714248 0 7 C-0.03954234 4.66700175 -0.04401732 2.33291811 0 0 Z " fill="#981010" transform="translate(20,47)"/>
<path d="M0 0 C2.46649533 3.69974299 2.25573392 5.26179573 1.671875 9.515625 C0.16658186 15.08170893 -3.15227752 19.58198042 -7.6875 23.0625 C-10 24 -10 24 -13 24 C-13 23.34 -13 22.68 -13 22 C-11.08073296 20.70073371 -9.0746115 19.62560667 -7.04296875 18.51171875 C-3.54798935 15.92556765 -2.25063418 13.06821093 -1.26953125 8.88671875 C-1.04330078 7.30310547 -1.04330078 7.30310547 -0.8125 5.6875 C-0.65394531 4.61886719 -0.49539062 3.55023438 -0.33203125 2.44921875 C-0.22246094 1.64097656 -0.11289063 0.83273438 0 0 Z " fill="#9B1919" transform="translate(177,148)"/>
<path d="M0 0 C2.46649533 3.69974299 2.25573392 5.26179573 1.671875 9.515625 C0.16658186 15.08170893 -3.15227752 19.58198042 -7.6875 23.0625 C-10 24 -10 24 -13 24 C-13 23.34 -13 22.68 -13 22 C-11.08073296 20.70073371 -9.0746115 19.62560667 -7.04296875 18.51171875 C-3.54798935 15.92556765 -2.25063418 13.06821093 -1.26953125 8.88671875 C-1.04330078 7.30310547 -1.04330078 7.30310547 -0.8125 5.6875 C-0.65394531 4.61886719 -0.49539062 3.55023438 -0.33203125 2.44921875 C-0.22246094 1.64097656 -0.11289063 0.83273438 0 0 Z " fill="#9B1919" transform="translate(122,148)"/>
<path d="M0 0 C2.46649533 3.69974299 2.25573392 5.26179573 1.671875 9.515625 C0.16658186 15.08170893 -3.15227752 19.58198042 -7.6875 23.0625 C-10 24 -10 24 -13 24 C-13 23.34 -13 22.68 -13 22 C-11.08073296 20.70073371 -9.0746115 19.62560667 -7.04296875 18.51171875 C-3.54798935 15.92556765 -2.25063418 13.06821093 -1.26953125 8.88671875 C-1.04330078 7.30310547 -1.04330078 7.30310547 -0.8125 5.6875 C-0.65394531 4.61886719 -0.49539062 3.55023438 -0.33203125 2.44921875 C-0.22246094 1.64097656 -0.11289062 0.83273438 0 0 Z " fill="#9B1919" transform="translate(63,148)"/>
<path d="M0 0 C5.82288742 1.83005033 9.20387478 5.48434071 12.375 10.5625 C14 14 14 14 13.75 16.4375 C13.5025 16.953125 13.255 17.46875 13 18 C12.34 17.67 11.68 17.34 11 17 C10.731875 15.9275 10.46375 14.855 10.1875 13.75 C8.44459034 8.24607475 5.68077597 5.91966987 0.6875 3.1875 C-0.199375 2.795625 -1.08625 2.40375 -2 2 C-1.34 1.34 -0.68 0.68 0 0 Z " fill="#A22222" transform="translate(165,133)"/>
<path d="M0 0 C5.82288742 1.83005033 9.20387478 5.48434071 12.375 10.5625 C14 14 14 14 13.75 16.4375 C13.5025 16.953125 13.255 17.46875 13 18 C12.34 17.67 11.68 17.34 11 17 C10.731875 15.9275 10.46375 14.855 10.1875 13.75 C8.44459034 8.24607475 5.68077597 5.91966987 0.6875 3.1875 C-0.199375 2.795625 -1.08625 2.40375 -2 2 C-1.34 1.34 -0.68 0.68 0 0 Z " fill="#A22222" transform="translate(110,133)"/>
<path d="M0 0 C5.82288742 1.83005033 9.20387478 5.48434071 12.375 10.5625 C14 14 14 14 13.75 16.4375 C13.5025 16.953125 13.255 17.46875 13 18 C12.34 17.67 11.68 17.34 11 17 C10.731875 15.9275 10.46375 14.855 10.1875 13.75 C8.44459034 8.24607475 5.68077597 5.91966987 0.6875 3.1875 C-0.199375 2.795625 -1.08625 2.40375 -2 2 C-1.34 1.34 -0.68 0.68 0 0 Z " fill="#A22222" transform="translate(51,133)"/>
<path d="M0 0 C0.33 0 0.66 0 1 0 C1.42105485 6.10529532 1.10167827 9.14274942 -3 14 C-5.94397854 16.91249214 -8.73273842 19.50762366 -13 20 C-13 19.34 -13 18.68 -13 18 C-11.7790696 17.2621076 -10.52130647 16.58475275 -9.25 15.9375 C-3.6503964 12.60747025 -2.00059332 7.81271834 -0.40234375 1.72265625 C-0.26957031 1.15417969 -0.13679687 0.58570313 0 0 Z " fill="#970F0F" transform="translate(175,47)"/>
<path d="M0 0 C0.33 0 0.66 0 1 0 C1.42105485 6.10529532 1.10167827 9.14274942 -3 14 C-5.94397854 16.91249214 -8.73273842 19.50762366 -13 20 C-13 19.34 -13 18.68 -13 18 C-11.7790696 17.2621076 -10.52130647 16.58475275 -9.25 15.9375 C-3.6503964 12.60747025 -2.00059332 7.81271834 -0.40234375 1.72265625 C-0.26957031 1.15417969 -0.13679688 0.58570313 0 0 Z " fill="#970F0F" transform="translate(119,47)"/>
<path d="M0 0 C0.33 0 0.66 0 1 0 C1.42105485 6.10529532 1.10167827 9.14274942 -3 14 C-5.94397854 16.91249214 -8.73273842 19.50762366 -13 20 C-13 19.34 -13 18.68 -13 18 C-11.7790696 17.2621076 -10.52130647 16.58475275 -9.25 15.9375 C-3.6503964 12.60747025 -2.00059332 7.81271834 -0.40234375 1.72265625 C-0.26957031 1.15417969 -0.13679688 0.58570313 0 0 Z " fill="#970F0F" transform="translate(59,47)"/>
<path d="M0 0 C0.77085937 -0.01417969 1.54171875 -0.02835938 2.3359375 -0.04296875 C4.84334888 0.20948393 6.45761902 0.93556533 8.625 2.1875 C5.68270079 3.1682664 3.6341216 3.35238128 0.5625 3.375 C-0.75427734 3.39626953 -0.75427734 3.39626953 -2.09765625 3.41796875 C-4.375 3.1875 -4.375 3.1875 -6.375 1.1875 C-4.04904054 0.02452027 -2.58776769 0.02149309 0 0 Z " fill="#AE3838" transform="translate(155.375,25.8125)"/>
<path d="M0 0 C0.77085938 -0.01417969 1.54171875 -0.02835938 2.3359375 -0.04296875 C4.84334888 0.20948393 6.45761902 0.93556533 8.625 2.1875 C5.68270079 3.1682664 3.6341216 3.35238128 0.5625 3.375 C-0.75427734 3.39626953 -0.75427734 3.39626953 -2.09765625 3.41796875 C-4.375 3.1875 -4.375 3.1875 -6.375 1.1875 C-4.04904054 0.02452027 -2.58776769 0.02149309 0 0 Z " fill="#AE3838" transform="translate(99.375,25.8125)"/>
<path d="M0 0 C0.77085938 -0.01417969 1.54171875 -0.02835938 2.3359375 -0.04296875 C4.84334888 0.20948393 6.45761902 0.93556533 8.625 2.1875 C5.68270079 3.1682664 3.6341216 3.35238128 0.5625 3.375 C-0.75427734 3.39626953 -0.75427734 3.39626953 -2.09765625 3.41796875 C-4.375 3.1875 -4.375 3.1875 -6.375 1.1875 C-4.04904054 0.02452027 -2.58776769 0.02149309 0 0 Z " fill="#AE3838" transform="translate(39.375,25.8125)"/>
<path d="M0 0 C2.17240606 3.25860909 2.23564158 3.82050803 1.8125 7.5 C1.73644531 8.2734375 1.66039062 9.046875 1.58203125 9.84375 C1 12 1 12 -2 15 C-1.34 10.05 -0.68 5.1 0 0 Z " fill="#950F0F" transform="translate(177,148)"/>
<path d="M0 0 C2.17240606 3.25860909 2.23564158 3.82050803 1.8125 7.5 C1.73644531 8.2734375 1.66039063 9.046875 1.58203125 9.84375 C1 12 1 12 -2 15 C-1.34 10.05 -0.68 5.1 0 0 Z " fill="#950F0F" transform="translate(122,148)"/>
<path d="M0 0 C2.17240606 3.25860909 2.23564158 3.82050803 1.8125 7.5 C1.73644531 8.2734375 1.66039063 9.046875 1.58203125 9.84375 C1 12 1 12 -2 15 C-1.34 10.05 -0.68 5.1 0 0 Z " fill="#950F0F" transform="translate(63,148)"/>
<path d="M0 0 C0.66 0 1.32 0 2 0 C4.3992233 4.64849515 4.19957409 8.91086074 4 14 C2.30566082 10.9530371 1.50532888 8.17178534 0.875 4.75 C0.70742187 3.85796875 0.53984375 2.9659375 0.3671875 2.046875 C0.18542969 1.03367188 0.18542969 1.03367188 0 0 Z " fill="#9C2121" transform="translate(173,37)"/>
<path d="M0 0 C0.66 0 1.32 0 2 0 C4.3992233 4.64849515 4.19957409 8.91086074 4 14 C2.30566082 10.9530371 1.50532888 8.17178534 0.875 4.75 C0.70742187 3.85796875 0.53984375 2.9659375 0.3671875 2.046875 C0.18542969 1.03367188 0.18542969 1.03367188 0 0 Z " fill="#9C2121" transform="translate(117,37)"/>
<path d="M0 0 C0.66 0 1.32 0 2 0 C4.3992233 4.64849515 4.19957409 8.91086074 4 14 C2.30566082 10.9530371 1.50532888 8.17178534 0.875 4.75 C0.70742188 3.85796875 0.53984375 2.9659375 0.3671875 2.046875 C0.18542969 1.03367188 0.18542969 1.03367188 0 0 Z " fill="#9C2121" transform="translate(57,37)"/>
<path d="M0 0 C-4.95 2.97 -4.95 2.97 -10 6 C-10 5.01 -10 4.02 -10 3 C-4.85106383 -1.21276596 -4.85106383 -1.21276596 0 0 Z " fill="#981313" transform="translate(151,29)"/>
<path d="M0 0 C-4.95 2.97 -4.95 2.97 -10 6 C-10 5.01 -10 4.02 -10 3 C-4.85106383 -1.21276596 -4.85106383 -1.21276596 0 0 Z " fill="#981313" transform="translate(95,29)"/>
<path d="M0 0 C-4.95 2.97 -4.95 2.97 -10 6 C-10 5.01 -10 4.02 -10 3 C-4.85106383 -1.21276596 -4.85106383 -1.21276596 0 0 Z " fill="#981313" transform="translate(35,29)"/>
</svg>
